<svg width="363" height="209" viewBox="0 0 363 209" fill="none" xmlns="http://www.w3.org/2000/svg">
<path d="M165.503 203.162C166.085 203.746 166.377 204.33 166.377 204.913C166.377 206.081 165.6 206.665 164.046 206.665H138.987C137.628 206.665 136.462 206.081 135.491 204.913L120.63 187.983C120.242 187.399 119.659 187.302 118.882 187.691C109.752 195.086 100.331 200.535 90.6185 204.038C80.906 207.346 70.6106 209 59.7325 209C42.2498 209 27.8752 204.913 16.6085 196.74C5.53618 188.372 0 176.21 0 160.253C0 146.825 3.69079 135.539 11.0724 126.392C18.6482 117.052 28.9435 108.1 41.9584 99.5377C42.7354 99.1485 42.8326 98.662 42.2498 98.0782C31.3717 84.8454 24.1844 74.8236 20.6878 68.0126C17.1913 61.007 15.443 53.8068 15.443 46.412C15.443 37.655 17.5798 29.7737 21.8533 22.7681C26.3211 15.568 32.5372 10.0219 40.5015 6.12988C48.6601 2.04329 57.8871 0 68.1824 0C84.1111 0 97.2231 4.37849 107.518 13.1355C117.814 21.8924 122.962 33.3738 122.962 47.5796C122.962 59.4502 119.368 69.8613 112.181 78.8128C105.187 87.5698 95.4748 96.1322 83.0427 104.5C82.2657 104.695 82.1686 105.181 82.7514 105.959C90.1329 114.911 102.274 129.02 119.174 148.285L120.339 149.744C120.533 150.134 120.825 150.328 121.213 150.328C121.602 150.328 121.893 150.231 122.087 150.036C130.634 139.333 136.948 131.063 141.027 125.225C141.998 123.668 143.261 123.376 144.815 124.349L161.423 133.69C163.172 134.663 163.463 136.025 162.298 137.777C153.75 150.815 145.689 161.323 138.113 169.302V169.885C138.113 170.275 138.405 170.956 138.987 171.929C145.786 180.102 154.625 190.513 165.503 203.162ZM69.0566 25.6872C61.2865 25.6872 55.0704 27.8277 50.4084 32.1089C45.7463 36.1955 43.4153 41.7416 43.4153 48.7472C43.4153 52.6392 44.678 56.9204 47.2032 61.5908C49.9228 66.0666 55.5561 73.656 64.1032 84.3589C64.6859 84.9427 65.2687 85.04 65.8514 84.6508C75.3698 78.4236 82.5571 72.4884 87.4134 66.845C92.4639 61.2016 94.9892 54.9744 94.9892 48.1634C94.9892 41.3524 92.5611 35.9036 87.7048 31.817C82.8485 27.7304 76.6324 25.6872 69.0566 25.6872ZM60.0239 185.064C73.8158 185.064 87.899 179.713 102.274 169.01C102.856 168.426 102.856 167.842 102.274 167.258L92.3668 155.29C86.5393 148.674 83.0427 144.782 81.8772 143.615L60.6066 119.679C60.4124 119.095 59.9267 118.998 59.1497 119.387C49.0486 126.003 41.3757 132.425 36.1309 138.652C30.8861 144.879 28.2637 151.982 28.2637 159.961C28.2637 167.745 31.0803 173.875 36.7136 178.351C42.5412 182.826 50.3113 185.064 60.0239 185.064Z" fill="#7C8999" fill-opacity="0.1"/>
<path d="M362.126 203.162C362.709 203.746 363 204.33 363 204.913C363 206.081 362.223 206.665 360.669 206.665H335.611C334.251 206.665 333.085 206.081 332.114 204.913L317.254 187.983C316.865 187.399 316.282 187.302 315.505 187.691C306.376 195.086 296.954 200.535 287.242 204.038C277.529 207.346 267.234 209 256.356 209C238.873 209 224.498 204.913 213.232 196.74C202.159 188.372 196.623 176.21 196.623 160.253C196.623 146.825 200.314 135.539 207.696 126.392C215.271 117.052 225.567 108.1 238.582 99.5377C239.359 99.1485 239.456 98.662 238.873 98.0782C227.995 84.8454 220.808 74.8236 217.311 68.0126C213.814 61.007 212.066 53.8068 212.066 46.412C212.066 37.655 214.203 29.7737 218.477 22.7681C222.944 15.568 229.16 10.0219 237.125 6.12988C245.283 2.04329 254.51 0 264.806 0C280.734 0 293.846 4.37849 304.142 13.1355C314.437 21.8924 319.585 33.3738 319.585 47.5796C319.585 59.4502 315.991 69.8613 308.804 78.8128C301.811 87.5698 292.098 96.1322 279.666 104.5C278.889 104.695 278.792 105.181 279.375 105.959C286.756 114.911 298.897 129.02 315.797 148.285L316.962 149.744C317.157 150.134 317.448 150.328 317.836 150.328C318.225 150.328 318.516 150.231 318.711 150.036C327.258 139.333 333.571 131.063 337.65 125.225C338.621 123.668 339.884 123.376 341.438 124.349L358.047 133.69C359.795 134.663 360.086 136.025 358.921 137.777C350.374 150.815 342.312 161.323 334.736 169.302V169.885C334.736 170.275 335.028 170.956 335.611 171.929C342.409 180.102 351.248 190.513 362.126 203.162ZM265.68 25.6872C257.91 25.6872 251.694 27.8277 247.032 32.1089C242.37 36.1955 240.039 41.7416 240.039 48.7472C240.039 52.6392 241.301 56.9204 243.826 61.5908C246.546 66.0666 252.179 73.656 260.726 84.3589C261.309 84.9427 261.892 85.04 262.475 84.6508C271.993 78.4236 279.18 72.4884 284.037 66.845C289.087 61.2016 291.612 54.9744 291.612 48.1634C291.612 41.3524 289.184 35.9036 284.328 31.817C279.472 27.7304 273.256 25.6872 265.68 25.6872ZM256.647 185.064C270.439 185.064 284.522 179.713 298.897 169.01C299.48 168.426 299.48 167.842 298.897 167.258L288.99 155.29C283.162 148.674 279.666 144.782 278.5 143.615L257.23 119.679C257.036 119.095 256.55 118.998 255.773 119.387C245.672 126.003 237.999 132.425 232.754 138.652C227.509 144.879 224.887 151.982 224.887 159.961C224.887 167.745 227.704 173.875 233.337 178.351C239.164 182.826 246.934 185.064 256.647 185.064Z" fill="#7C8999" fill-opacity="0.1"/>
</svg>
