<svg width="63" height="63" viewBox="0 0 63 63" fill="none" xmlns="http://www.w3.org/2000/svg">
<circle cx="31.25" cy="31.25" r="29.5833" transform="matrix(-1 0 0 1 63.001 0.500977)" stroke="white" stroke-width="3.33333"/>
<path d="M46.3345 32.2102C46.3345 30.9689 45.3049 29.9626 44.0349 29.9626H22.1887C20.9186 29.9626 19.889 30.9689 19.889 32.2102C19.889 33.4515 20.9186 34.4578 22.1887 34.4578H44.0349C45.3049 34.4578 46.3345 33.4515 46.3345 32.2102Z" fill="white"/>
<path d="M32.2802 23.8741C31.5035 22.892 30.0593 22.7113 29.0544 23.4704L20.8671 29.6562C19.8623 30.4154 19.6774 31.827 20.4541 32.8091C21.2308 33.7912 22.6751 33.972 23.6799 33.2128L31.8672 27.027C32.8721 26.2678 33.057 24.8562 32.2802 23.8741Z" fill="white"/>
<path d="M31.6788 41.5093C32.5769 40.6316 32.5769 39.2084 31.6788 38.3307L23.5935 30.428C22.6954 29.5503 21.2394 29.5503 20.3413 30.428C19.4433 31.3058 19.4433 32.7289 20.3413 33.6067L28.4267 41.5093C29.3248 42.3871 30.7808 42.3871 31.6788 41.5093Z" fill="white"/>
</svg>
