<svg width="40" height="40" viewBox="0 0 40 40" fill="none" xmlns="http://www.w3.org/2000/svg">
<g clip-path="url(#clip0_459_1319)">
<path d="M29.852 9.86211C29.595 9.44422 29.3219 9.03993 29.0313 8.65229C26.647 5.47279 23.4397 3.72168 20 3.72168C16.5603 3.72168 13.353 5.47279 10.9687 8.65229C10.678 9.03993 10.405 9.44422 10.1479 9.86211C12.0035 12.8194 15.7231 14.8429 19.9999 14.8429C24.277 14.8429 27.9965 12.8194 29.852 9.86211Z" fill="white"/>
<path d="M38.6124 18.6604H32.5442C32.4694 17.4981 32.3014 16.3601 32.0441 15.262L36.8146 10.4915C37.3564 9.94967 37.3564 9.07125 36.8146 8.52942C36.2728 7.98759 35.3943 7.98759 34.8525 8.52942L32.4508 10.9311C31.7711 12.1192 30.8597 13.2133 29.7347 14.171C27.4559 16.1108 24.5322 17.2898 21.3872 17.5583V36.2769C24.2955 35.8709 26.9706 34.1912 29.031 31.4436C29.3924 30.9617 29.7281 30.4552 30.0375 29.9272L34.8526 34.7423C35.1235 35.0132 35.4786 35.1486 35.8336 35.1486C36.1886 35.1486 36.5438 35.0131 36.8146 34.7423C37.3565 34.2004 37.3565 33.322 36.8146 32.7802L31.3039 27.2694C31.9909 25.457 32.4126 23.4838 32.5443 21.4352H38.6125C39.3787 21.4352 39.9999 20.814 39.9999 20.0478C39.9998 19.2816 39.3786 18.6604 38.6124 18.6604Z" fill="white"/>
<path d="M18.6127 17.5584C15.4676 17.2899 12.5439 16.1109 10.2651 14.1711C9.14012 13.2134 8.22868 12.1193 7.54903 10.9312L5.14732 8.52942C4.60549 7.98759 3.72697 7.98759 3.18523 8.52942C2.6434 9.07125 2.6434 9.94967 3.18523 10.4915L7.95564 15.2619C7.6985 16.3601 7.53035 17.498 7.45561 18.6603H1.38742C0.621193 18.6603 0 19.2815 0 20.0478C0 20.814 0.621193 21.4352 1.38742 21.4352H7.45561C7.58733 23.4838 8.00901 25.457 8.69597 27.2694L3.18523 32.7801C2.6434 33.3219 2.6434 34.2004 3.18523 34.7422C3.72697 35.284 4.60549 35.284 5.14732 34.7422L9.9624 29.9271C10.2718 30.4551 10.6075 30.9617 10.9688 31.4436C13.0291 34.1911 15.7043 35.8709 18.6127 36.2769V17.5584Z" fill="white"/>
</g>
<defs>
<clipPath id="clip0_459_1319">
<rect width="40" height="40" fill="white"/>
</clipPath>
</defs>
</svg>
