<svg width="41" height="41" viewBox="0 0 41 41" fill="none" xmlns="http://www.w3.org/2000/svg">
<g clip-path="url(#clip0_459_1324)">
<path d="M22.8609 6.85817C18.4497 2.44702 11.2722 2.44702 6.8611 6.85817C2.44995 11.2693 2.44995 18.4468 6.8611 22.858C8.99791 24.9949 11.839 26.1717 14.861 26.1717C17.883 26.1717 20.724 24.9949 22.8609 22.858C27.2721 18.4468 27.2721 11.2693 22.8609 6.85817ZM21.9114 21.9085C20.0283 23.7917 17.5243 24.8288 14.861 24.8288C12.1977 24.8288 9.69384 23.7916 7.81061 21.9085C3.923 18.0209 3.923 11.6953 7.81061 7.80768C9.75463 5.86365 12.3074 4.89195 14.861 4.89195C17.414 4.89195 19.9678 5.8641 21.9114 7.80768C25.799 11.6953 25.799 18.0209 21.9114 21.9085Z" fill="white"/>
<path d="M40.0613 35.5252L27.3888 22.8529C31.058 17.1052 30.3855 9.36591 25.3693 4.34965C19.5748 -1.44472 10.1469 -1.44463 4.35268 4.34965C1.54579 7.15654 0 10.8884 0 14.8579C0 18.8275 1.54579 22.5594 4.35268 25.3662C7.15949 28.1731 10.8914 29.7188 14.861 29.7188C17.7393 29.7188 20.4923 28.9054 22.8587 27.3885L35.5283 40.0581C36.1337 40.6635 36.9386 40.997 37.7948 40.997C38.6509 40.997 39.4558 40.6635 40.0611 40.0581C40.6666 39.4528 41 38.6478 41 37.7917C41 36.9356 40.6666 36.1307 40.0613 35.5252ZM5.30219 24.4167C2.74896 21.8635 1.34275 18.4688 1.34275 14.8579C1.34275 11.2471 2.74896 7.85248 5.30219 5.29916C7.93751 2.66384 11.3992 1.34613 14.861 1.34613C18.3226 1.34613 21.7844 2.66375 24.4197 5.29916C29.6904 10.5699 29.6904 19.1459 24.4197 24.4167C21.8665 26.97 18.4717 28.3761 14.861 28.3761C11.2501 28.3761 7.85542 26.97 5.30219 24.4167ZM39.1116 39.1086C38.7599 39.4604 38.2922 39.6541 37.7948 39.6541C37.2973 39.6541 36.8297 39.4604 36.4779 39.1086L23.971 26.6018C24.4584 26.2222 24.9255 25.81 25.3694 25.3662C25.8153 24.9203 26.2266 24.4527 26.6039 23.967L39.1118 36.4748C39.4636 36.8266 39.6572 37.2943 39.6572 37.7918C39.6572 38.2894 39.4635 38.7568 39.1116 39.1086Z" fill="white"/>
<path d="M22.9246 16.0934L21.4786 14.6475C21.3527 14.5215 21.1819 14.4508 21.0038 14.4508H19.7994C19.7688 13.9669 19.6927 13.4985 19.5762 13.0515L19.9725 12.4571L21.1667 12.1585C21.5265 12.0686 21.7451 11.7041 21.6553 11.3444C21.5653 10.9845 21.2006 10.766 20.8411 10.8558L19.3951 11.2174C19.2331 11.2578 19.0919 11.3573 18.9993 11.4962L18.9802 11.5249C18.7602 11.1163 18.5016 10.7413 18.2112 10.4066C18.2113 10.3939 18.2122 10.3813 18.2122 10.3685C18.2122 9.51497 17.7366 8.5848 16.974 7.92648L17.5317 7.08982C17.7374 6.78134 17.6541 6.36447 17.3455 6.15876C17.0371 5.95305 16.6202 6.03638 16.4145 6.34495L15.8143 7.24526C15.4632 7.11968 15.0863 7.04784 14.6911 7.04784C14.296 7.04784 13.9191 7.11968 13.568 7.24526L12.9678 6.34495C12.7622 6.03638 12.3453 5.95314 12.0367 6.15876C11.7282 6.36438 11.6448 6.78125 11.8506 7.08982L12.4083 7.92648C11.6457 8.5848 11.17 9.51497 11.17 10.3685C11.17 10.3813 11.1709 10.3939 11.1711 10.4066C10.8807 10.7412 10.6222 11.1162 10.4021 11.5249L10.383 11.4962C10.2904 11.3572 10.1492 11.2578 9.98719 11.2174L8.54123 10.8558C8.18159 10.766 7.81696 10.9846 7.72711 11.3444C7.63718 11.7041 7.85591 12.0686 8.21564 12.1585L9.40981 12.4571L9.80608 13.0514C9.68959 13.4983 9.61347 13.9668 9.5829 14.4507H8.37857C8.20049 14.4507 8.02971 14.5214 7.90386 14.6474L6.4579 16.0933C6.19568 16.3555 6.19568 16.7806 6.4579 17.0428C6.58901 17.1739 6.76085 17.2395 6.93261 17.2395C7.10436 17.2395 7.27629 17.1739 7.40731 17.0428L8.65657 15.7935H9.61712C9.69101 16.4412 9.84574 17.0578 10.0704 17.6264L8.85212 18.1136C8.69944 18.1747 8.57448 18.2897 8.50094 18.4367L7.77792 19.8827C7.61205 20.2144 7.74646 20.6176 8.0782 20.7835C8.17455 20.8317 8.27696 20.8545 8.37794 20.8545C8.62421 20.8545 8.8613 20.7185 8.97895 20.4832L9.5878 19.2656L10.6913 18.8241C11.6311 20.2522 13.0744 21.1693 14.6911 21.1693C16.3078 21.1693 17.751 20.2522 18.6908 18.8241L19.7943 19.2656L20.4032 20.4832C20.5208 20.7185 20.7579 20.8545 21.0042 20.8545C21.1051 20.8545 21.2075 20.8317 21.3039 20.7835C21.6355 20.6177 21.77 20.2145 21.6041 19.8828L20.8812 18.4368C20.8076 18.2898 20.6828 18.1748 20.53 18.1137L19.3118 17.6265C19.5365 17.0578 19.6912 16.4412 19.765 15.7936H20.7255L21.9748 17.0429C22.1059 17.174 22.2777 17.2395 22.4496 17.2395C22.6213 17.2395 22.7933 17.1739 22.9243 17.0429C23.1868 16.7807 23.1868 16.3556 22.9246 16.0934ZM16.8695 10.3685C16.8695 11.467 15.055 11.5226 14.6912 11.5226C14.3275 11.5226 12.513 11.467 12.513 10.3685C12.513 9.47816 13.5182 8.39059 14.6912 8.39059C15.8644 8.39068 16.8695 9.47816 16.8695 10.3685ZM10.9101 14.9324C10.9101 13.7687 11.2258 12.6989 11.7517 11.858C12.2434 12.382 13.0262 12.725 14.0199 12.8304V19.7479C12.2542 19.3364 10.9101 17.3345 10.9101 14.9324ZM15.3627 19.7479V12.8304C16.3563 12.725 17.1391 12.3819 17.6308 11.858C18.1567 12.6989 18.4724 13.7687 18.4724 14.9324C18.4724 17.3345 17.1282 19.3364 15.3627 19.7479Z" fill="white"/>
</g>
<defs>
<clipPath id="clip0_459_1324">
<rect width="41" height="41" fill="white"/>
</clipPath>
</defs>
</svg>
