<svg width="114" height="258" viewBox="0 0 114 258" fill="none" xmlns="http://www.w3.org/2000/svg">
<path d="M40.2824 0.95141C50.8394 2.49554 59.9083 5.51517 67.4892 10.0103C75.0936 14.3232 81.107 20.1911 85.5294 27.6137C89.9753 34.8542 92.9331 43.5702 94.4029 53.7617C95.6903 63.9297 95.5014 75.4821 93.8361 88.4189C92.7338 96.9828 93.1312 103.98 95.0284 109.411C96.7197 115 100.023 119.593 104.938 123.189L107.225 124.873C111.616 128.216 113.53 132.074 112.967 136.448L111.982 144.1C111.419 148.473 108.59 151.721 103.495 153.844L100.583 154.858C95.0767 157.298 90.8093 160.916 87.7811 165.713C84.5471 170.668 82.3906 177.337 81.3117 185.718C79.6465 198.655 76.9037 209.879 73.0833 219.389C69.0804 228.877 64.0117 236.559 57.8772 242.438C51.7426 248.316 44.5304 252.482 36.2407 254.934C27.7685 257.363 18.151 257.885 7.38818 256.499L6.02003 256.323C4.19581 256.088 2.8068 255.354 1.853 254.12C0.899196 252.886 0.539555 251.357 0.774096 249.535L3.02568 232.043C3.26022 230.221 3.99512 228.834 5.23038 227.882C6.46562 226.929 7.81293 226.547 9.2723 226.735L10.6405 226.911C18.7139 227.58 25.2772 226.294 30.3302 223.055C35.3598 219.998 39.291 214.669 42.1237 207.069C44.933 199.651 47.1586 189.565 48.8003 176.81C50.231 165.696 53.2514 156.638 57.8614 149.637C62.289 142.612 67.9063 137.871 74.7132 135.413C70.7755 132.869 67.6288 129.222 65.2729 124.474C62.7112 119.884 60.9847 114.568 60.0934 108.526C59.2022 102.484 59.2139 95.9096 60.1286 88.8034C61.7469 76.231 62.1482 65.9099 61.3326 57.8401C60.5169 49.7703 58.1545 43.6316 54.2455 39.4238C50.1775 35.0104 44.0624 32.0932 35.9004 30.6721L34.5674 30.2227C33.1081 30.0348 31.9015 29.3238 30.9477 28.0897C29.9939 26.8555 29.6342 25.3274 29.8688 23.5053L32.1203 6.0133C32.3314 4.37342 33.0546 3.0773 34.2899 2.12493C35.5486 0.990358 37.09 0.540486 38.9142 0.7753L40.2824 0.95141Z" fill="url(#paint0_linear_446_393)"/>
<defs>
<linearGradient id="paint0_linear_446_393" x1="-0.346683" y1="229.911" x2="109.153" y2="93.4111" gradientUnits="userSpaceOnUse">
<stop stop-color="#1E2631"/>
<stop offset="1" stop-color="#1E2631" stop-opacity="0.42"/>
</linearGradient>
</defs>
</svg>
