<svg width="115" height="257" viewBox="0 0 115 257" fill="none" xmlns="http://www.w3.org/2000/svg">
<path d="M72.5557 256.429C62.0124 254.794 52.9697 251.697 45.4277 247.137C37.8606 242.758 31.8979 236.839 27.5394 229.379C23.1559 222.1 20.273 213.359 18.8908 203.156C17.6908 192.977 17.979 181.427 19.7552 168.505C20.9311 159.951 20.5938 152.95 18.7433 147.503C17.1001 141.9 13.8365 137.279 8.95266 133.64L6.68042 131.937C2.31816 128.556 0.437252 124.681 1.03769 120.313L2.08846 112.669C2.6889 108.301 5.54552 105.078 10.6583 102.999L13.5792 102.01C19.1064 99.6172 23.4047 96.0357 26.474 91.2653C29.7505 86.3379 31.9642 79.6882 33.115 71.3162C34.8913 58.3942 37.7304 47.1945 41.6324 37.7171C45.7166 28.2648 50.8511 20.6258 57.0359 14.8002C63.2208 8.97452 70.4684 4.87122 78.7789 2.49025C87.2716 0.134326 96.8933 -0.304735 107.644 1.17306L109.01 1.36092C110.833 1.6114 112.215 2.35777 113.158 3.60006C114.102 4.84234 114.448 6.3735 114.198 8.19351L111.796 25.6656C111.546 27.4856 110.799 28.8664 109.556 29.8081C108.312 30.7499 106.962 31.1205 105.504 30.9201L104.137 30.7323C96.0701 29.9942 89.496 31.2231 84.4153 34.4189C79.3596 37.4327 75.3828 42.7274 72.4849 50.303C69.612 57.6965 67.3 67.7633 65.5487 80.5034C64.0226 91.6054 60.9245 100.637 56.2545 107.598C51.7667 114.584 46.1089 119.277 39.2811 121.676C43.1968 124.254 46.3122 127.928 48.6271 132.697C51.1493 137.308 52.8301 142.639 53.6694 148.688C54.5087 154.738 54.4406 161.312 53.4648 168.41C51.7386 180.968 51.2486 191.285 51.995 199.361C52.7413 207.438 55.0508 213.597 58.9236 217.838C62.9535 222.286 69.0433 225.256 77.1928 226.747L78.5219 227.208C79.9796 227.408 81.18 228.129 82.1232 229.372C83.0663 230.614 83.4128 232.145 83.1627 233.965L80.7609 251.437C80.5357 253.075 79.8015 254.365 78.5581 255.307C77.2897 256.431 75.7444 256.867 73.9223 256.617L72.5557 256.429Z" fill="url(#paint0_linear_446_398)"/>
<defs>
<linearGradient id="paint0_linear_446_398" x1="115.15" y1="27.8266" x2="4.48152" y2="163.381" gradientUnits="userSpaceOnUse">
<stop stop-color="#1E2631"/>
<stop offset="1" stop-color="#1E2631" stop-opacity="0.35"/>
</linearGradient>
</defs>
</svg>
