<svg width="50" height="38" viewBox="0 0 50 38" fill="none" xmlns="http://www.w3.org/2000/svg">
<path d="M47.9934 26.9591H46.2247V5.73459C46.2247 4.32732 45.6656 2.97768 44.6706 1.98259C43.6755 0.987503 42.3258 0.428467 40.9186 0.428467H25.0002H9.08182C7.67455 0.428467 6.32491 0.987503 5.32982 1.98259C4.33473 2.97768 3.7757 4.32732 3.7757 5.73459V26.9591H2.00699C1.5379 26.9591 1.08802 27.1454 0.756324 27.4771C0.424627 27.8088 0.238281 28.2587 0.238281 28.7278V32.2652C0.238281 33.6725 0.797318 35.0221 1.79241 36.0172C2.7875 37.0123 4.13713 37.5713 5.5444 37.5713H44.456C45.8632 37.5713 47.2129 37.0123 48.208 36.0172C49.2031 35.0221 49.7621 33.6725 49.7621 32.2652V28.7278C49.7621 28.2587 49.5758 27.8088 49.2441 27.4771C48.9124 27.1454 48.4625 26.9591 47.9934 26.9591ZM7.31311 5.73459C7.31311 5.2655 7.49946 4.81562 7.83115 4.48392C8.16285 4.15223 8.61273 3.96588 9.08182 3.96588H40.9186C41.3876 3.96588 41.8375 4.15223 42.1692 4.48392C42.5009 4.81562 42.6873 5.2655 42.6873 5.73459V26.9591H7.31311V5.73459ZM46.2247 32.2652C46.2247 32.7343 46.0383 33.1842 45.7066 33.5159C45.3749 33.8476 44.9251 34.0339 44.456 34.0339H5.5444C5.07531 34.0339 4.62544 33.8476 4.29374 33.5159C3.96204 33.1842 3.7757 32.7343 3.7757 32.2652V30.4965H46.2247V32.2652ZM30.3063 9.272C30.3063 9.74109 30.12 10.191 29.7883 10.5227C29.4566 10.8544 29.0067 11.0407 28.5376 11.0407H21.4628C20.9937 11.0407 20.5438 10.8544 20.2121 10.5227C19.8804 10.191 19.6941 9.74109 19.6941 9.272C19.6941 8.80291 19.8804 8.35304 20.2121 8.02134C20.5438 7.68964 20.9937 7.5033 21.4628 7.5033H28.5376C29.0067 7.5033 29.4566 7.68964 29.7883 8.02134C30.12 8.35304 30.3063 8.80291 30.3063 9.272Z" fill="white"/>
</svg>
