<svg width="39" height="39" viewBox="0 0 39 39" fill="none" xmlns="http://www.w3.org/2000/svg">
<path d="M19.3248 0C1.40333 0 0 1.40333 0 19.3248V19.6752C0 37.5967 1.40333 39 19.3248 39H19.6752C37.5967 39 39 37.5967 39 19.6752V19.5C39 1.4157 37.5843 0 19.5 0H19.3248ZM15.6 3.9H23.4C34.2508 3.9 35.1 4.74923 35.1 15.6V23.4C35.1 34.2508 34.2508 35.1 23.4 35.1H15.6C4.74923 35.1 3.9 34.2508 3.9 23.4V15.6C3.9 4.74923 4.74923 3.9 15.6 3.9ZM29.2443 7.8C28.1669 7.80293 27.2971 8.67834 27.3 9.75571C27.3029 10.8331 28.1783 11.7029 29.2557 11.7C30.3331 11.6971 31.2029 10.8217 31.2 9.74429C31.1971 8.66691 30.3217 7.79708 29.2443 7.8ZM19.4771 9.75C14.0932 9.76268 9.73733 14.1389 9.75 19.5229C9.76268 24.9068 14.1389 29.2627 19.5229 29.25C24.9068 29.2373 29.2627 24.8611 29.25 19.4771C29.2373 14.0932 24.8611 9.73733 19.4771 9.75ZM19.4867 13.65C22.7168 13.6422 25.3422 16.2565 25.35 19.4867C25.3568 22.7168 22.7435 25.3422 19.5133 25.35C16.2832 25.3578 13.6578 22.7445 13.65 19.5133C13.6422 16.2832 16.2565 13.6578 19.4867 13.65Z" fill="white"/>
</svg>
