<svg width="84" height="28" viewBox="0 0 84 28" fill="none" xmlns="http://www.w3.org/2000/svg">
<path d="M9.36027 28C9.12027 28 8.96027 27.8933 8.88027 27.68L0.320273 0.440001L0.280273 0.280001C0.280273 0.0933332 0.400273 0 0.640273 0H3.88027C4.12027 0 4.28027 0.106668 4.36027 0.320002L10.9603 22.44C10.9869 22.4933 11.0269 22.52 11.0803 22.52C11.1336 22.52 11.1736 22.4933 11.2003 22.44L17.8003 0.320002C17.8803 0.106668 18.0269 0 18.2403 0H21.4003C21.6936 0 21.8003 0.146666 21.7203 0.440001L13.0803 27.68C13.0003 27.8933 12.8403 28 12.6003 28H9.36027Z" fill="white"/>
<path d="M24.5037 28C24.2104 28 24.1037 27.8533 24.1837 27.56L33.5837 0.320002C33.6637 0.106668 33.8237 0 34.0637 0H37.0637C37.357 0 37.4637 0.146666 37.3837 0.440001L27.9837 27.68C27.9037 27.8933 27.7437 28 27.5037 28H24.5037Z" fill="#3DD8BC"/>
<path d="M58.255 13.4C58.1216 13.48 58.1216 13.56 58.255 13.64C61.0816 14.84 62.495 17.0667 62.495 20.32C62.495 22.7733 61.6816 24.6667 60.055 26C58.4283 27.3333 56.3083 28 53.695 28H43.735C43.4683 28 43.335 27.8667 43.335 27.6V0.4C43.335 0.133333 43.4683 0 43.735 0H53.375C56.1483 0 58.295 0.640001 59.815 1.92C61.3616 3.17334 62.135 5.01334 62.135 7.44C62.135 10.32 60.8416 12.3067 58.255 13.4ZM47.335 3.32C47.2283 3.32 47.175 3.37333 47.175 3.48V11.92C47.175 12.0267 47.2283 12.08 47.335 12.08H53.375C54.9216 12.08 56.135 11.6933 57.015 10.92C57.9216 10.1467 58.375 9.09333 58.375 7.76C58.375 6.4 57.9216 5.32 57.015 4.52C56.135 3.72 54.9216 3.32 53.375 3.32H47.335ZM53.695 24.64C55.215 24.64 56.415 24.2267 57.295 23.4C58.2016 22.5467 58.655 21.4 58.655 19.96C58.655 18.52 58.2016 17.3867 57.295 16.56C56.3883 15.7067 55.1483 15.28 53.575 15.28H47.335C47.2283 15.28 47.175 15.3333 47.175 15.44V24.48C47.175 24.5867 47.2283 24.64 47.335 24.64H53.695Z" fill="white"/>
<path d="M66.7359 26.44C66.5226 26.44 66.4159 26.32 66.4159 26.08V23.2C66.4159 22.9867 66.5226 22.84 66.7359 22.76L79.2559 17.28C79.4159 17.2 79.4159 17.12 79.2559 17.04L66.7359 11.56C66.5226 11.48 66.4159 11.3333 66.4159 11.12V8.2C66.4159 8.06667 66.4559 7.97333 66.5359 7.92C66.6426 7.84 66.7626 7.82667 66.8959 7.88L83.1359 15.32C83.3226 15.4 83.4159 15.5467 83.4159 15.76V18.52C83.4159 18.7067 83.3226 18.8533 83.1359 18.96L66.8959 26.4L66.7359 26.44Z" fill="white"/>
<rect x="19.77" y="0.341064" width="2" height="28" transform="rotate(-9.22098 19.77 0.341064)" fill="#D9D9D9" fill-opacity="0.29"/>
</svg>
