<svg width="713" height="165" viewBox="0 0 713 165" fill="none" xmlns="http://www.w3.org/2000/svg">
<path d="M4.32551 130.775C3.12398 130.775 2.10268 130.355 1.26161 129.514C0.420536 128.674 0 127.653 0 126.452V9.18668C0 7.86572 0.420536 6.78493 1.26161 5.94432C2.10268 5.10371 3.12398 4.6834 4.32551 4.6834H52.6271C61.999 4.6834 70.1694 6.18449 77.1383 9.18668C84.1072 12.0688 89.5141 16.512 93.359 22.5164C97.2039 28.4006 99.1263 35.786 99.1263 44.6725C99.1263 53.679 97.2039 61.1245 93.359 67.0087C89.5141 72.7729 84.1072 77.0961 77.1383 79.9782C70.1694 82.8603 61.999 84.3013 52.6271 84.3013H25.7729V126.452C25.7729 127.653 25.3523 128.674 24.5112 129.514C23.7903 130.355 22.769 130.775 21.4473 130.775H4.32551ZM25.4124 64.3068H51.7259C58.6948 64.3068 64.0416 62.6856 67.7664 59.4432C71.4911 56.0808 73.3535 51.1572 73.3535 44.6725C73.3535 38.6681 71.6113 33.8646 68.1268 30.262C64.6424 26.5393 59.1754 24.6779 51.7259 24.6779H25.4124V64.3068Z" fill="url(#paint0_linear_436_1421)"/>
<path d="M120.967 130.775C119.765 130.775 118.744 130.355 117.903 129.514C117.062 128.674 116.641 127.653 116.641 126.452V41.6103C116.641 40.2893 117.062 39.2085 117.903 38.3679C118.744 37.5273 119.765 37.107 120.967 37.107H135.565C136.767 37.107 137.788 37.5273 138.629 38.3679C139.59 39.2085 140.071 40.2893 140.071 41.6103V48.9956C142.834 45.1528 146.379 42.2107 150.704 40.1692C155.15 38.1277 160.257 37.107 166.024 37.107H173.413C174.735 37.107 175.756 37.5273 176.477 38.3679C177.318 39.2085 177.739 40.2293 177.739 41.4301V54.3996C177.739 55.6004 177.318 56.6212 176.477 57.4618C175.756 58.3024 174.735 58.7227 173.413 58.7227H159.355C153.588 58.7227 149.082 60.3439 145.838 63.5862C142.714 66.7085 141.152 71.1517 141.152 76.9159V126.452C141.152 127.653 140.732 128.674 139.891 129.514C139.05 130.355 137.968 130.775 136.646 130.775H120.967Z" fill="url(#paint1_linear_436_1421)"/>
<path d="M232.016 132.576C222.404 132.576 214.294 130.895 207.685 127.533C201.197 124.17 196.211 119.427 192.726 113.302C189.362 107.178 187.439 100.033 186.959 91.8668C186.839 89.7052 186.779 87.0633 186.779 83.941C186.779 80.8188 186.839 78.1769 186.959 76.0153C187.439 67.7293 189.422 60.5841 192.906 54.5797C196.511 48.4552 201.557 43.7118 208.046 40.3493C214.654 36.9869 222.644 35.3057 232.016 35.3057C241.388 35.3057 249.318 36.9869 255.807 40.3493C262.415 43.7118 267.461 48.4552 270.946 54.5797C274.55 60.5841 276.593 67.7293 277.074 76.0153C277.194 78.1769 277.254 80.8188 277.254 83.941C277.254 87.0633 277.194 89.7052 277.074 91.8668C276.593 100.033 274.61 107.178 271.126 113.302C267.762 119.427 262.775 124.17 256.167 127.533C249.679 130.895 241.628 132.576 232.016 132.576ZM232.016 114.743C238.384 114.743 243.311 112.762 246.795 108.799C250.279 104.716 252.202 98.7718 252.562 90.9662C252.683 89.1648 252.743 86.8231 252.743 83.941C252.743 81.0589 252.683 78.7172 252.562 76.9159C252.202 69.1103 250.279 63.226 246.795 59.2631C243.311 55.1801 238.384 53.1386 232.016 53.1386C225.648 53.1386 220.722 55.1801 217.237 59.2631C213.753 63.226 211.83 69.1103 211.47 76.9159C211.35 78.7172 211.29 81.0589 211.29 83.941C211.29 86.8231 211.35 89.1648 211.47 90.9662C211.83 98.7718 213.753 104.716 217.237 108.799C220.722 112.762 225.648 114.743 232.016 114.743Z" fill="url(#paint2_linear_436_1421)"/>
<path d="M281.723 165C280.521 165 279.5 164.58 278.659 163.739C277.818 162.898 277.397 161.878 277.397 160.677V150.229C277.397 149.028 277.818 148.008 278.659 147.167C279.5 146.326 280.521 145.906 281.723 145.906H286.409C290.134 145.906 292.897 145.246 294.699 143.925C296.502 142.604 297.703 140.742 298.304 138.341C298.905 136.059 299.205 133.477 299.205 130.595V41.4301C299.205 40.2293 299.626 39.2085 300.467 38.3679C301.308 37.5273 302.329 37.107 303.531 37.107H319.211C320.412 37.107 321.434 37.5273 322.275 38.3679C323.116 39.2085 323.536 40.2293 323.536 41.4301V130.955C323.536 138.04 322.215 144.105 319.571 149.148C317.048 154.192 313.203 158.095 308.036 160.857C302.99 163.619 296.502 165 288.572 165H281.723ZM302.81 21.6157C301.488 21.6157 300.407 21.1954 299.566 20.3548C298.845 19.5142 298.484 18.4934 298.484 17.2926V4.32314C298.484 3.12227 298.845 2.10153 299.566 1.26091C300.407 0.420304 301.488 0 302.81 0H319.751C321.073 0 322.155 0.420304 322.996 1.26091C323.837 2.10153 324.257 3.12227 324.257 4.32314V17.2926C324.257 18.4934 323.837 19.5142 322.996 20.3548C322.155 21.1954 321.073 21.6157 319.751 21.6157H302.81Z" fill="url(#paint3_linear_436_1421)"/>
<path d="M388.46 132.576C375.123 132.576 364.549 128.734 356.739 121.048C348.929 113.362 344.724 102.434 344.123 88.2642C344.003 87.0633 343.943 85.5622 343.943 83.7609C343.943 81.8395 344.003 80.3384 344.123 79.2576C344.604 70.131 346.647 62.3253 350.251 55.8406C353.976 49.2358 359.082 44.1921 365.571 40.7096C372.059 37.107 379.689 35.3057 388.46 35.3057C398.192 35.3057 406.363 37.3472 412.971 41.4301C419.579 45.393 424.566 50.9771 427.93 58.1823C431.294 65.2675 432.977 73.4934 432.977 82.8603V86.643C432.977 87.8439 432.556 88.8646 431.715 89.7052C430.874 90.5458 429.792 90.9662 428.471 90.9662H368.635C368.635 90.9662 368.635 91.1463 368.635 91.5065C368.635 91.8668 368.635 92.167 368.635 92.4072C368.755 96.6103 369.536 100.513 370.978 104.116C372.54 107.598 374.762 110.42 377.646 112.582C380.65 114.743 384.194 115.824 388.28 115.824C391.644 115.824 394.467 115.344 396.75 114.383C399.033 113.302 400.896 112.102 402.337 110.781C403.779 109.46 404.801 108.379 405.401 107.538C406.483 106.097 407.324 105.257 407.925 105.016C408.646 104.656 409.667 104.476 410.989 104.476H426.488C427.69 104.476 428.651 104.836 429.372 105.557C430.213 106.277 430.573 107.178 430.453 108.259C430.333 110.18 429.312 112.522 427.389 115.284C425.587 118.046 422.944 120.748 419.459 123.39C415.975 126.032 411.589 128.253 406.303 130.055C401.136 131.736 395.188 132.576 388.46 132.576ZM368.635 75.8352H408.465V75.2948C408.465 70.6114 407.684 66.5284 406.122 63.0458C404.56 59.4432 402.277 56.6812 399.274 54.7598C396.27 52.7183 392.665 51.6976 388.46 51.6976C384.254 51.6976 380.65 52.7183 377.646 54.7598C374.642 56.6812 372.359 59.4432 370.797 63.0458C369.355 66.5284 368.635 70.6114 368.635 75.2948V75.8352Z" fill="url(#paint4_linear_436_1421)"/>
<path d="M494.11 130.775C486.9 130.775 480.833 129.514 475.906 126.992C470.98 124.471 467.315 120.748 464.912 115.824C462.509 110.781 461.308 104.536 461.308 97.0906V56.2009H447.07C445.868 56.2009 444.847 55.7806 444.006 54.9399C443.165 54.0993 442.744 53.0186 442.744 51.6976V41.4301C442.744 40.2293 443.165 39.2085 444.006 38.3679C444.847 37.5273 445.868 37.107 447.07 37.107H461.308V7.20523C461.308 6.00436 461.668 4.98362 462.389 4.14301C463.23 3.3024 464.312 2.88209 465.633 2.88209H480.232C481.433 2.88209 482.455 3.3024 483.296 4.14301C484.137 4.98362 484.557 6.00436 484.557 7.20523V37.107H507.086C508.288 37.107 509.309 37.5273 510.15 38.3679C510.991 39.2085 511.412 40.2293 511.412 41.4301V51.6976C511.412 53.0186 510.991 54.0993 510.15 54.9399C509.309 55.7806 508.288 56.2009 507.086 56.2009H484.557V95.2893C484.557 100.213 485.398 104.056 487.081 106.818C488.883 109.58 491.947 110.961 496.272 110.961H508.708C509.91 110.961 510.931 111.381 511.772 112.222C512.613 113.062 513.034 114.083 513.034 115.284V126.452C513.034 127.653 512.613 128.674 511.772 129.514C510.931 130.355 509.91 130.775 508.708 130.775H494.11Z" fill="url(#paint5_linear_436_1421)"/>
<path d="M570.475 132.576C560.863 132.576 552.752 130.895 546.144 127.533C539.656 124.17 534.669 119.427 531.185 113.302C527.821 107.178 525.898 100.033 525.417 91.8668C525.297 89.7052 525.237 87.0633 525.237 83.941C525.237 80.8188 525.297 78.1769 525.417 76.0153C525.898 67.7293 527.881 60.5841 531.365 54.5797C534.97 48.4552 540.016 43.7118 546.504 40.3493C553.113 36.9869 561.103 35.3057 570.475 35.3057C579.847 35.3057 587.777 36.9869 594.265 40.3493C600.874 43.7118 605.92 48.4552 609.405 54.5797C613.009 60.5841 615.052 67.7293 615.532 76.0153C615.652 78.1769 615.713 80.8188 615.713 83.941C615.713 87.0633 615.652 89.7052 615.532 91.8668C615.052 100.033 613.069 107.178 609.585 113.302C606.22 119.427 601.234 124.17 594.626 127.533C588.137 130.895 580.087 132.576 570.475 132.576ZM570.475 114.743C576.843 114.743 581.769 112.762 585.254 108.799C588.738 104.716 590.661 98.7718 591.021 90.9662C591.141 89.1648 591.201 86.8231 591.201 83.941C591.201 81.0589 591.141 78.7172 591.021 76.9159C590.661 69.1103 588.738 63.226 585.254 59.2631C581.769 55.1801 576.843 53.1386 570.475 53.1386C564.107 53.1386 559.18 55.1801 555.696 59.2631C552.212 63.226 550.289 69.1103 549.929 76.9159C549.809 78.7172 549.748 81.0589 549.748 83.941C549.748 86.8231 549.809 89.1648 549.929 90.9662C550.289 98.7718 552.212 104.716 555.696 108.799C559.18 112.762 564.107 114.743 570.475 114.743Z" fill="url(#paint6_linear_436_1421)"/>
<path d="M671.187 132.576C663.978 132.576 657.79 131.736 652.623 130.055C647.577 128.373 643.431 126.272 640.187 123.75C636.943 121.228 634.54 118.706 632.978 116.184C631.416 113.663 630.575 111.561 630.455 109.88C630.335 108.559 630.695 107.538 631.536 106.818C632.497 105.977 633.519 105.557 634.6 105.557H648.838C649.319 105.557 649.739 105.617 650.1 105.737C650.46 105.857 650.941 106.217 651.542 106.818C653.104 108.139 654.726 109.52 656.408 110.961C658.21 112.402 660.313 113.663 662.716 114.743C665.119 115.704 668.123 116.184 671.727 116.184C676.413 116.184 680.318 115.284 683.442 113.483C686.686 111.561 688.309 108.859 688.309 105.377C688.309 102.855 687.588 100.813 686.146 99.2522C684.824 97.691 682.301 96.31 678.576 95.1092C674.851 93.7882 669.565 92.4072 662.716 90.9662C655.987 89.405 650.4 87.4236 645.955 85.0218C641.509 82.6201 638.205 79.6179 636.042 76.0153C633.879 72.4127 632.798 68.2096 632.798 63.4061C632.798 58.7227 634.18 54.2795 636.943 50.0764C639.827 45.7533 644.032 42.2107 649.559 39.4487C655.206 36.6867 662.175 35.3057 670.466 35.3057C676.954 35.3057 682.601 36.1463 687.407 37.8275C692.214 39.3886 696.179 41.3701 699.303 43.7718C702.547 46.1736 705.01 48.6354 706.692 51.1572C708.374 53.5589 709.275 55.6605 709.395 57.4618C709.516 58.7827 709.155 59.8635 708.314 60.7041C707.473 61.4247 706.512 61.7849 705.43 61.7849H692.093C691.493 61.7849 690.952 61.6648 690.471 61.4247C689.991 61.1845 689.51 60.8843 689.029 60.524C687.708 59.3231 686.266 58.0622 684.704 56.7413C683.142 55.3002 681.219 54.0993 678.937 53.1386C676.774 52.1779 673.89 51.6976 670.286 51.6976C665.72 51.6976 662.235 52.7183 659.832 54.7598C657.429 56.6812 656.228 59.143 656.228 62.1452C656.228 64.1867 656.768 65.988 657.85 67.5491C659.051 68.9902 661.394 70.3712 664.879 71.6921C668.363 73.0131 673.65 74.3941 680.739 75.8352C688.789 77.2762 695.157 79.4378 699.843 82.3199C704.649 85.0819 708.014 88.3242 709.936 92.0469C711.979 95.6496 713 99.6725 713 104.116C713 109.52 711.378 114.383 708.134 118.706C705.01 123.029 700.324 126.452 694.076 128.974C687.948 131.376 680.318 132.576 671.187 132.576Z" fill="url(#paint7_linear_436_1421)"/>
<defs>
<linearGradient id="paint0_linear_436_1421" x1="356.5" y1="0" x2="356.5" y2="165" gradientUnits="userSpaceOnUse">
<stop stop-color="#2C3844"/>
<stop offset="0.9999" stop-color="#2C3844" stop-opacity="0.49"/>
<stop offset="1" stop-color="#2C3844" stop-opacity="0"/>
</linearGradient>
<linearGradient id="paint1_linear_436_1421" x1="356.5" y1="0" x2="356.5" y2="165" gradientUnits="userSpaceOnUse">
<stop stop-color="#2C3844"/>
<stop offset="0.9999" stop-color="#2C3844" stop-opacity="0.49"/>
<stop offset="1" stop-color="#2C3844" stop-opacity="0"/>
</linearGradient>
<linearGradient id="paint2_linear_436_1421" x1="356.5" y1="0" x2="356.5" y2="165" gradientUnits="userSpaceOnUse">
<stop stop-color="#2C3844"/>
<stop offset="0.9999" stop-color="#2C3844" stop-opacity="0.49"/>
<stop offset="1" stop-color="#2C3844" stop-opacity="0"/>
</linearGradient>
<linearGradient id="paint3_linear_436_1421" x1="356.5" y1="0" x2="356.5" y2="165" gradientUnits="userSpaceOnUse">
<stop stop-color="#2C3844"/>
<stop offset="0.9999" stop-color="#2C3844" stop-opacity="0.49"/>
<stop offset="1" stop-color="#2C3844" stop-opacity="0"/>
</linearGradient>
<linearGradient id="paint4_linear_436_1421" x1="356.5" y1="0" x2="356.5" y2="165" gradientUnits="userSpaceOnUse">
<stop stop-color="#2C3844"/>
<stop offset="0.9999" stop-color="#2C3844" stop-opacity="0.49"/>
<stop offset="1" stop-color="#2C3844" stop-opacity="0"/>
</linearGradient>
<linearGradient id="paint5_linear_436_1421" x1="356.5" y1="0" x2="356.5" y2="165" gradientUnits="userSpaceOnUse">
<stop stop-color="#2C3844"/>
<stop offset="0.9999" stop-color="#2C3844" stop-opacity="0.49"/>
<stop offset="1" stop-color="#2C3844" stop-opacity="0"/>
</linearGradient>
<linearGradient id="paint6_linear_436_1421" x1="356.5" y1="0" x2="356.5" y2="165" gradientUnits="userSpaceOnUse">
<stop stop-color="#2C3844"/>
<stop offset="0.9999" stop-color="#2C3844" stop-opacity="0.49"/>
<stop offset="1" stop-color="#2C3844" stop-opacity="0"/>
</linearGradient>
<linearGradient id="paint7_linear_436_1421" x1="356.5" y1="0" x2="356.5" y2="165" gradientUnits="userSpaceOnUse">
<stop stop-color="#2C3844"/>
<stop offset="0.9999" stop-color="#2C3844" stop-opacity="0.49"/>
<stop offset="1" stop-color="#2C3844" stop-opacity="0"/>
</linearGradient>
</defs>
</svg>
