<svg width="46" height="46" viewBox="0 0 46 46" fill="none" xmlns="http://www.w3.org/2000/svg">
<path d="M39.0471 22.9997C44.8546 14.845 47.8161 6.41702 43.6978 2.29843C39.5796 -1.82015 31.1522 1.14155 22.9981 6.94951C14.844 1.14155 6.41657 -1.82015 2.29829 2.29843C-1.81999 6.41702 1.1415 14.845 6.94903 22.9997C1.1415 31.1544 -1.81999 39.5825 2.29829 43.701C3.62472 45.0276 5.39642 45.619 7.46028 45.619C11.8142 45.619 17.4685 42.9871 23.0098 39.05C28.5276 42.9871 34.182 45.619 38.5476 45.619C40.6115 45.619 42.3856 45.0252 43.7096 43.701C47.8161 39.5825 44.8546 31.1544 39.0471 22.9997ZM41.0332 4.96326C42.8332 6.76337 41.6175 12.5972 36.6699 19.8731C35.1047 17.9353 33.4383 16.0816 31.6776 14.3196C29.9155 12.5612 28.0619 10.897 26.1245 9.33395C33.3998 4.386 39.2332 3.16079 41.0332 4.96326ZM34.3752 22.9997C32.708 25.1089 30.9175 27.1175 29.0129 29.015C27.1155 30.9197 25.1071 32.7104 22.9981 34.3777C20.8891 32.7104 18.8806 30.9197 16.9832 29.015C15.0787 27.1175 13.2881 25.1089 11.621 22.9997C14.9658 18.7845 18.7831 14.9669 22.9981 11.6218C25.1071 13.2891 27.1155 15.0798 29.0129 16.9844C30.9175 18.882 32.708 20.8906 34.3752 22.9997ZM4.96292 4.96326C5.48124 4.44255 6.33647 4.17394 7.46499 4.17394C10.2498 4.17394 14.6955 5.7997 19.8693 9.33395C17.9337 10.8983 16.081 12.5624 14.3186 14.3196C12.5603 16.0818 10.8962 17.9355 9.33329 19.8731C4.3857 12.5972 3.16294 6.76337 4.96292 4.96326ZM4.96292 41.0362C3.16294 39.2361 4.3857 33.4022 9.33329 26.1264C10.8985 28.0641 12.5649 29.9179 14.3256 31.6799C16.0865 33.4369 17.9377 35.101 19.8717 36.6655C12.5963 41.6135 6.7629 42.8387 4.96292 41.0362ZM41.0332 41.0362C39.2332 42.8387 33.3998 41.6205 26.1245 36.6726C28.061 35.106 29.9145 33.4395 31.6776 31.6799C33.4358 29.9177 35.0999 28.0639 36.6628 26.1264C41.6104 33.4022 42.8332 39.2361 41.0332 41.0362ZM25.8253 22.9997C25.8253 23.5589 25.6594 24.1056 25.3488 24.5706C25.0381 25.0355 24.5966 25.3979 24.08 25.6119C23.5634 25.8259 22.9949 25.8819 22.4465 25.7728C21.8981 25.6637 21.3943 25.3944 20.9989 24.999C20.6035 24.6036 20.3343 24.0998 20.2252 23.5513C20.1161 23.0029 20.1721 22.4344 20.3861 21.9177C20.6001 21.4011 20.9624 20.9595 21.4274 20.6488C21.8923 20.3382 22.4389 20.1723 22.9981 20.1723C23.7479 20.1723 24.467 20.4702 24.9972 21.0005C25.5274 21.5307 25.8253 22.2499 25.8253 22.9997Z" fill="white"/>
</svg>
