<svg width="80" height="80" viewBox="0 0 80 80" fill="none" xmlns="http://www.w3.org/2000/svg">
<path d="M52.5 35H67.5C68.8261 35 70.0979 34.4732 71.0355 33.5355C71.9732 32.5979 72.5 31.3261 72.5 30V15C72.5 13.6739 71.9732 12.4021 71.0355 11.4645C70.0979 10.5268 68.8261 10 67.5 10H52.5C51.1739 10 49.9021 10.5268 48.9645 11.4645C48.0268 12.4021 47.5 13.6739 47.5 15V20H45C42.3478 20 39.8043 21.0536 37.9289 22.9289C36.0536 24.8043 35 27.3478 35 30V37.5H25V35C25 33.6739 24.4732 32.4021 23.5355 31.4645C22.5979 30.5268 21.3261 30 20 30H10C8.67392 30 7.40215 30.5268 6.46447 31.4645C5.52678 32.4021 5 33.6739 5 35V45C5 46.3261 5.52678 47.5979 6.46447 48.5355C7.40215 49.4732 8.67392 50 10 50H20C21.3261 50 22.5979 49.4732 23.5355 48.5355C24.4732 47.5979 25 46.3261 25 45V42.5H35V50C35 52.6522 36.0536 55.1957 37.9289 57.0711C39.8043 58.9464 42.3478 60 45 60H47.5V65C47.5 66.3261 48.0268 67.5979 48.9645 68.5355C49.9021 69.4732 51.1739 70 52.5 70H67.5C68.8261 70 70.0979 69.4732 71.0355 68.5355C71.9732 67.5979 72.5 66.3261 72.5 65V50C72.5 48.6739 71.9732 47.4021 71.0355 46.4645C70.0979 45.5268 68.8261 45 67.5 45H52.5C51.1739 45 49.9021 45.5268 48.9645 46.4645C48.0268 47.4021 47.5 48.6739 47.5 50V55H45C43.6739 55 42.4021 54.4732 41.4645 53.5355C40.5268 52.5979 40 51.3261 40 50V30C40 28.6739 40.5268 27.4021 41.4645 26.4645C42.4021 25.5268 43.6739 25 45 25H47.5V30C47.5 31.3261 48.0268 32.5979 48.9645 33.5355C49.9021 34.4732 51.1739 35 52.5 35ZM20 45H10V35H20V45ZM52.5 50H67.5V65H52.5V50ZM52.5 15H67.5V30H52.5V15Z" fill="white"/>
</svg>
