<svg width="469" height="335" viewBox="0 0 469 335" fill="none" xmlns="http://www.w3.org/2000/svg">
<mask id="mask0_442_223" style="mask-type:luminance" maskUnits="userSpaceOnUse" x="0" y="0" width="469" height="335">
<path d="M468.081 0H0V334.037H468.081V0Z" fill="white"/>
</mask>
<g mask="url(#mask0_442_223)">
<path d="M0 7.38202C0 3.30504 3.41453 0 7.62657 0H139.184V334.037H7.62657C3.41453 334.037 0 330.732 0 326.655V7.38202Z" fill="#4B5563"/>
<path d="M15.7309 19.379C18.1001 19.379 20.0208 17.5199 20.0208 15.2266C20.0208 12.9333 18.1001 11.0742 15.7309 11.0742C13.3616 11.0742 11.4409 12.9333 11.4409 15.2266C11.4409 17.5199 13.3616 19.379 15.7309 19.379Z" fill="#E02424"/>
<path d="M30.9843 19.379C33.3536 19.379 35.2742 17.5199 35.2742 15.2266C35.2742 12.9333 33.3536 11.0742 30.9843 11.0742C28.615 11.0742 26.6943 12.9333 26.6943 15.2266C26.6943 17.5199 28.615 19.379 30.9843 19.379Z" fill="#FACA15"/>
<path d="M46.2367 19.379C48.606 19.379 50.5267 17.5199 50.5267 15.2266C50.5267 12.9333 48.606 11.0742 46.2367 11.0742C43.8675 11.0742 41.9468 12.9333 41.9468 15.2266C41.9468 17.5199 43.8675 19.379 46.2367 19.379Z" fill="#0E9F6E"/>
<path d="M139.185 30.4512H0V58.1338H139.185V30.4512Z" fill="#374151"/>
<path d="M12.7729 41.7079C12.7729 41.3653 12.9136 41.0367 13.1638 40.7943C13.4142 40.5521 13.7536 40.416 14.1076 40.416H17.4442L18.7789 41.7079H22.1155C22.4695 41.7079 22.8089 41.844 23.0592 42.0862C23.3095 42.3285 23.4501 42.6571 23.4501 42.9997V46.8753C23.4501 47.2179 23.3095 47.5465 23.0592 47.7887C22.8089 48.031 22.4695 48.1671 22.1155 48.1671H14.1076C13.7536 48.1671 13.4142 48.031 13.1638 47.7887C12.9136 47.5465 12.7729 47.2179 12.7729 46.8753V41.7079Z" fill="#9CA3AF"/>
<path d="M47.3502 40.1979C47.0866 39.9362 46.7666 39.8054 46.39 39.8054C46.0135 39.8054 45.6935 39.9362 45.4299 40.1979C45.1664 40.4595 45.0347 40.7772 45.0347 41.1511C45.0347 41.3941 45.0957 41.6195 45.2181 41.8274C45.3404 42.0353 45.5049 42.1977 45.7122 42.3145C45.7122 42.5575 45.6924 42.7713 45.6524 42.9559C45.6123 43.1404 45.5464 43.3027 45.4547 43.443C45.3627 43.5831 45.2677 43.7022 45.1687 43.8004C45.0697 43.8985 44.9309 43.9908 44.7521 44.0773C44.5733 44.1637 44.4073 44.2361 44.2544 44.2946C44.1015 44.3528 43.8954 44.4217 43.6366 44.5012C43.1659 44.6462 42.8035 44.7792 42.5494 44.9007V41.4173C42.7565 41.3005 42.9212 41.1382 43.0436 40.9302C43.1659 40.7223 43.2271 40.4968 43.2271 40.2539C43.2271 39.8801 43.0953 39.5623 42.8317 39.3007C42.5682 39.0391 42.2482 38.9082 41.8716 38.9082C41.4951 38.9082 41.175 39.039 40.9115 39.3007C40.648 39.5623 40.5161 39.8801 40.5161 40.2539C40.5161 40.4968 40.5773 40.7223 40.6996 40.9302C40.822 41.1382 40.9867 41.3005 41.1938 41.4173V47.1646C40.9867 47.2814 40.822 47.4439 40.6996 47.6518C40.5773 47.8597 40.5161 48.0853 40.5161 48.3281C40.5161 48.7018 40.6479 49.0196 40.9115 49.2812C41.175 49.5428 41.4952 49.6737 41.8716 49.6737C42.2482 49.6737 42.5682 49.5428 42.8317 49.2812C43.0952 49.0196 43.2271 48.7018 43.2271 48.3281C43.2271 48.0853 43.1659 47.8597 43.0436 47.6518C42.9212 47.4439 42.7565 47.2814 42.5494 47.1646V46.9824C42.5494 46.6601 42.6471 46.4265 42.8423 46.2816C43.0376 46.1367 43.4365 45.9709 44.039 45.784C44.6745 45.583 45.1523 45.3937 45.4723 45.2161C46.5265 44.6228 47.0584 43.6556 47.0678 42.3145C47.275 42.1977 47.4396 42.0353 47.5619 41.8274C47.6842 41.6194 47.7455 41.394 47.7455 41.151C47.7455 40.7773 47.6138 40.4596 47.3502 40.1979ZM42.3518 48.8049C42.22 48.9358 42.06 49.0011 41.8717 49.0011C41.6835 49.0011 41.5234 48.9358 41.3916 48.8049C41.2599 48.6742 41.1939 48.5152 41.1939 48.3284C41.1939 48.1414 41.2598 47.9826 41.3916 47.8517C41.5234 47.7209 41.6835 47.6554 41.8717 47.6554C42.06 47.6554 42.22 47.721 42.3518 47.8517C42.4837 47.9826 42.5495 48.1414 42.5495 48.3284C42.5495 48.5152 42.4837 48.6742 42.3518 48.8049ZM42.3518 40.7305C42.22 40.8614 42.06 40.9268 41.8717 40.9268C41.6835 40.9268 41.5234 40.8614 41.3916 40.7305C41.2599 40.5997 41.1939 40.4409 41.1939 40.2539C41.1939 40.0671 41.2598 39.9082 41.3916 39.7774C41.5234 39.6466 41.6835 39.5812 41.8717 39.5812C42.06 39.5812 42.22 39.6466 42.3518 39.7774C42.4837 39.9082 42.5495 40.0671 42.5495 40.2539C42.5495 40.4409 42.4837 40.5998 42.3518 40.7305ZM46.8701 41.6277C46.7383 41.7585 46.5784 41.824 46.3901 41.824C46.2017 41.824 46.0418 41.7585 45.9101 41.6277C45.7783 41.497 45.7124 41.3381 45.7124 41.1511C45.7124 40.9643 45.7783 40.8055 45.9101 40.6745C46.0418 40.5437 46.2017 40.4784 46.3901 40.4784C46.5784 40.4784 46.7383 40.5437 46.8701 40.6745C47.0018 40.8053 47.0678 40.9642 47.0678 41.1511C47.0678 41.3381 47.0019 41.497 46.8701 41.6277Z" fill="#9CA3AF"/>
<path d="M71.5387 45.3692H71.0994L70.9437 45.2238C71.4887 44.6102 71.8168 43.8136 71.8168 42.947C71.8168 41.0146 70.1986 39.4482 68.2021 39.4482C66.2057 39.4482 64.5874 41.0146 64.5874 42.947C64.5874 44.8794 66.2057 46.4458 68.2021 46.4458C69.0975 46.4458 69.9205 46.1281 70.5544 45.6007L70.7046 45.7514V46.1766L73.4851 48.8626L74.3137 48.0606L71.5387 45.3692ZM68.2021 45.3692C66.8174 45.3692 65.6996 44.2873 65.6996 42.947C65.6996 41.6067 66.8174 40.5247 68.2021 40.5247C69.5868 40.5247 70.7046 41.6067 70.7046 42.947C70.7046 44.2873 69.5868 45.3692 68.2021 45.3692Z" fill="#9CA3AF"/>
<path d="M95.8894 44.8301V49.1362H100.338V44.8301H95.8894ZM90.3281 49.1362H94.777V44.8301H90.3281V49.1362ZM90.3281 39.4474V43.7535H94.777V39.4474H90.3281ZM97.9248 38.7422L94.777 41.7834L97.9248 44.8301L101.072 41.7834L97.9248 38.7422Z" fill="#9CA3AF"/>
<path d="M125.04 44.7974C125.062 44.6359 125.073 44.4691 125.073 44.2914C125.073 44.1192 125.062 43.9469 125.035 43.7854L126.164 42.935C126.264 42.8596 126.291 42.7143 126.23 42.6066L125.163 40.8196C125.096 40.7011 124.957 40.6635 124.835 40.7011L123.505 41.2178C123.227 41.0134 122.933 40.8411 122.604 40.7119L122.404 39.3447C122.382 39.2155 122.27 39.124 122.137 39.124H120.001C119.868 39.124 119.763 39.2155 119.74 39.3447L119.54 40.7119C119.212 40.8411 118.912 41.0187 118.639 41.2178L117.31 40.7011C117.188 40.6581 117.049 40.7011 116.982 40.8196L115.92 42.6066C115.853 42.7196 115.875 42.8596 115.987 42.935L117.116 43.7854C117.088 43.9469 117.065 44.1245 117.065 44.2914C117.065 44.4583 117.076 44.6359 117.104 44.7974L115.975 45.6479C115.875 45.7232 115.848 45.8685 115.909 45.9762L116.976 47.7633C117.043 47.8817 117.182 47.9193 117.304 47.8817L118.633 47.3649C118.912 47.5695 119.206 47.7417 119.534 47.8709L119.734 49.2381C119.763 49.3673 119.868 49.4589 120.001 49.4589H122.137C122.27 49.4589 122.382 49.3673 122.399 49.2381L122.599 47.8709C122.927 47.7417 123.227 47.5695 123.5 47.3649L124.829 47.8817C124.951 47.9248 125.09 47.8817 125.157 47.7633L126.225 45.9762C126.291 45.8578 126.264 45.7232 126.158 45.6479L125.04 44.7974ZM121.069 46.2292C119.968 46.2292 119.067 45.3572 119.067 44.2914C119.067 43.2257 119.968 42.3537 121.069 42.3537C122.17 42.3537 123.071 43.2257 123.071 44.2914C123.071 45.3572 122.17 46.2292 121.069 46.2292Z" fill="#9CA3AF"/>
<path d="M17.1608 69.2061H13.3476C12.2946 69.2061 11.4409 70.0323 11.4409 71.0516V74.7426C11.4409 75.7618 12.2946 76.5881 13.3476 76.5881H17.1608C18.2139 76.5881 19.0675 75.7618 19.0675 74.7426V71.0516C19.0675 70.0323 18.2139 69.2061 17.1608 69.2061Z" fill="#9CA3AF"/>
<path d="M107.726 69.2061H34.3202C33.2672 69.2061 32.4136 70.0323 32.4136 71.0516V74.7426C32.4136 75.7618 33.2672 76.5881 34.3202 76.5881H107.726C108.779 76.5881 109.633 75.7618 109.633 74.7426V71.0516C109.633 70.0323 108.779 69.2061 107.726 69.2061Z" fill="#D4D4D8"/>
<path d="M17.1608 89.5068H13.3476C12.2946 89.5068 11.4409 90.3331 11.4409 91.3523V95.0434C11.4409 96.0626 12.2946 96.8889 13.3476 96.8889H17.1608C18.2139 96.8889 19.0675 96.0626 19.0675 95.0434V91.3523C19.0675 90.3331 18.2139 89.5068 17.1608 89.5068Z" fill="#9CA3AF"/>
<path d="M74.3597 89.5068H34.3202C33.2672 89.5068 32.4136 90.3331 32.4136 91.3523V95.0434C32.4136 96.0626 33.2672 96.8889 34.3202 96.8889H74.3597C75.4127 96.8889 76.2663 96.0626 76.2663 95.0434V91.3523C76.2663 90.3331 75.4127 89.5068 74.3597 89.5068Z" fill="#D4D4D8"/>
<path d="M17.1608 109.807H13.3476C12.2946 109.807 11.4409 110.633 11.4409 111.652V115.343C11.4409 116.362 12.2946 117.189 13.3476 117.189H17.1608C18.2139 117.189 19.0675 116.362 19.0675 115.343V111.652C19.0675 110.633 18.2139 109.807 17.1608 109.807Z" fill="#9CA3AF"/>
<path d="M107.726 109.807H34.3202C33.2672 109.807 32.4136 110.633 32.4136 111.652V115.343C32.4136 116.362 33.2672 117.189 34.3202 117.189H107.726C108.779 117.189 109.633 116.362 109.633 115.343V111.652C109.633 110.633 108.779 109.807 107.726 109.807Z" fill="#D4D4D8"/>
<path d="M17.1608 130.109H13.3476C12.2946 130.109 11.4409 130.936 11.4409 131.955V135.646C11.4409 136.665 12.2946 137.491 13.3476 137.491H17.1608C18.2139 137.491 19.0675 136.665 19.0675 135.646V131.955C19.0675 130.936 18.2139 130.109 17.1608 130.109Z" fill="#9CA3AF"/>
<path d="M87.7062 130.109H34.3202C33.2672 130.109 32.4136 130.936 32.4136 131.955V135.646C32.4136 136.665 33.2672 137.491 34.3202 137.491H87.7062C88.7592 137.491 89.6128 136.665 89.6128 135.646V131.955C89.6128 130.936 88.7592 130.109 87.7062 130.109Z" fill="#D4D4D8"/>
<path d="M17.1608 150.409H13.3476C12.2946 150.409 11.4409 151.235 11.4409 152.255V155.946C11.4409 156.965 12.2946 157.791 13.3476 157.791H17.1608C18.2139 157.791 19.0675 156.965 19.0675 155.946V152.255C19.0675 151.235 18.2139 150.409 17.1608 150.409Z" fill="#9CA3AF"/>
<path d="M99.146 150.409H34.3202C33.2672 150.409 32.4136 151.235 32.4136 152.255V155.946C32.4136 156.965 33.2672 157.791 34.3202 157.791H99.146C100.199 157.791 101.053 156.965 101.053 155.946V152.255C101.053 151.235 100.199 150.409 99.146 150.409Z" fill="#D4D4D8"/>
<path d="M17.1608 170.709H13.3476C12.2946 170.709 11.4409 171.535 11.4409 172.554V176.246C11.4409 177.265 12.2946 178.091 13.3476 178.091H17.1608C18.2139 178.091 19.0675 177.265 19.0675 176.246V172.554C19.0675 171.535 18.2139 170.709 17.1608 170.709Z" fill="#9CA3AF"/>
<path d="M62.9198 170.709H34.3202C33.2672 170.709 32.4136 171.535 32.4136 172.554V176.246C32.4136 177.265 33.2672 178.091 34.3202 178.091H62.9198C63.9729 178.091 64.8265 177.265 64.8265 176.246V172.554C64.8265 171.535 63.9729 170.709 62.9198 170.709Z" fill="#D4D4D8"/>
<path d="M17.1608 191.01H13.3476C12.2946 191.01 11.4409 191.836 11.4409 192.855V196.546C11.4409 197.566 12.2946 198.392 13.3476 198.392H17.1608C18.2139 198.392 19.0675 197.566 19.0675 196.546V192.855C19.0675 191.836 18.2139 191.01 17.1608 191.01Z" fill="#9CA3AF"/>
<path d="M96.2861 191.01H34.3202C33.2672 191.01 32.4136 191.836 32.4136 192.855V196.546C32.4136 197.566 33.2672 198.392 34.3202 198.392H96.2861C97.3391 198.392 98.1927 197.566 98.1927 196.546V192.855C98.1927 191.836 97.3391 191.01 96.2861 191.01Z" fill="#D4D4D8"/>
<path d="M17.1608 211.311H13.3476C12.2946 211.311 11.4409 212.137 11.4409 213.156V216.847C11.4409 217.866 12.2946 218.693 13.3476 218.693H17.1608C18.2139 218.693 19.0675 217.866 19.0675 216.847V213.156C19.0675 212.137 18.2139 211.311 17.1608 211.311Z" fill="#9CA3AF"/>
<path d="M107.726 211.311H34.3202C33.2672 211.311 32.4136 212.137 32.4136 213.156V216.847C32.4136 217.866 33.2672 218.693 34.3202 218.693H107.726C108.779 218.693 109.633 217.866 109.633 216.847V213.156C109.633 212.137 108.779 211.311 107.726 211.311Z" fill="#D4D4D8"/>
<path d="M17.1608 231.612H13.3476C12.2946 231.612 11.4409 232.439 11.4409 233.458V237.149C11.4409 238.168 12.2946 238.994 13.3476 238.994H17.1608C18.2139 238.994 19.0675 238.168 19.0675 237.149V233.458C19.0675 232.439 18.2139 231.612 17.1608 231.612Z" fill="#9CA3AF"/>
<path d="M107.726 231.612H34.3202C33.2672 231.612 32.4136 232.439 32.4136 233.458V237.149C32.4136 238.168 33.2672 238.994 34.3202 238.994H107.726C108.779 238.994 109.633 238.168 109.633 237.149V233.458C109.633 232.439 108.779 231.612 107.726 231.612Z" fill="#D4D4D8"/>
<path d="M17.1608 251.912H13.3476C12.2946 251.912 11.4409 252.738 11.4409 253.758V257.449C11.4409 258.468 12.2946 259.294 13.3476 259.294H17.1608C18.2139 259.294 19.0675 258.468 19.0675 257.449V253.758C19.0675 252.738 18.2139 251.912 17.1608 251.912Z" fill="#9CA3AF"/>
<path d="M95.3328 251.912H34.3202C33.2672 251.912 32.4136 252.738 32.4136 253.758V257.449C32.4136 258.468 33.2672 259.294 34.3202 259.294H95.3328C96.3858 259.294 97.2394 258.468 97.2394 257.449V253.758C97.2394 252.738 96.3858 251.912 95.3328 251.912Z" fill="#D4D4D8"/>
<path d="M17.1608 272.212H13.3476C12.2946 272.212 11.4409 273.038 11.4409 274.057V277.748C11.4409 278.768 12.2946 279.594 13.3476 279.594H17.1608C18.2139 279.594 19.0675 278.768 19.0675 277.748V274.057C19.0675 273.038 18.2139 272.212 17.1608 272.212Z" fill="#9CA3AF"/>
<path d="M80.0796 272.212H34.3202C33.2672 272.212 32.4136 273.038 32.4136 274.057V277.748C32.4136 278.768 33.2672 279.594 34.3202 279.594H80.0796C81.1326 279.594 81.9863 278.768 81.9863 277.748V274.057C81.9863 273.038 81.1326 272.212 80.0796 272.212Z" fill="#D4D4D8"/>
<path d="M139.184 0H460.453C464.666 0 468.08 3.30505 468.08 7.38203V326.655C468.08 330.732 464.666 334.037 460.453 334.037H139.184V0Z" fill="#1F2A37"/>
<path d="M139.184 0H460.453C464.666 0 468.08 3.30505 468.08 7.38203V27.6826H139.184V0Z" fill="#1F2A37"/>
<path d="M293.622 0H139.184V27.6826H293.622V0Z" fill="#374151"/>
<path d="M158.727 6.9209C157.941 6.9209 157.305 7.54376 157.305 8.30503L157.297 19.3781C157.297 20.1394 157.934 20.7622 158.721 20.7622H167.307C168.094 20.7622 168.737 20.1394 168.737 19.3781V11.0733L164.447 6.9209H158.727ZM163.732 11.7654V7.959L167.665 11.7654H163.732Z" fill="#9CA3AF"/>
<path d="M276.463 11.0742H177.317C176.264 11.0742 175.411 11.9005 175.411 12.9197V14.7652C175.411 15.7845 176.264 16.6107 177.317 16.6107H276.463C277.516 16.6107 278.369 15.7845 278.369 14.7652V12.9197C278.369 11.9005 277.516 11.0742 276.463 11.0742Z" fill="#9CA3AF"/>
<path d="M313.165 6.9209C312.378 6.9209 311.742 7.54376 311.742 8.30503L311.735 19.3781C311.735 20.1394 312.372 20.7622 313.158 20.7622H321.745C322.531 20.7622 323.175 20.1394 323.175 19.3781V11.0733L318.885 6.9209H313.165ZM318.17 11.7654V7.959L322.102 11.7654H318.17Z" fill="#6B7280"/>
<path d="M430.901 11.0742H331.755C330.702 11.0742 329.849 11.9005 329.849 12.9197V14.7652C329.849 15.7845 330.702 16.6107 331.755 16.6107H430.901C431.954 16.6107 432.807 15.7845 432.807 14.7652V12.9197C432.807 11.9005 431.954 11.0742 430.901 11.0742Z" fill="#6B7280"/>
<mask id="mask1_442_223" style="mask-type:luminance" maskUnits="userSpaceOnUse" x="151" y="59" width="307" height="8">
<path d="M457.592 59.0557H151.576V66.4377H457.592V59.0557Z" fill="white"/>
</mask>
<g mask="url(#mask1_442_223)">
<path d="M267.881 59.0557H153.482C152.429 59.0557 151.576 59.8819 151.576 60.9012V64.5922C151.576 65.6114 152.429 66.4377 153.482 66.4377H267.881C268.934 66.4377 269.787 65.6114 269.787 64.5922V60.9012C269.787 59.8819 268.934 59.0557 267.881 59.0557Z" fill="#6B7280"/>
<path d="M298.387 59.0557H281.227C280.174 59.0557 279.321 59.8819 279.321 60.9012V64.5922C279.321 65.6114 280.174 66.4377 281.227 66.4377H298.387C299.44 66.4377 300.294 65.6114 300.294 64.5922V60.9012C300.294 59.8819 299.44 59.0557 298.387 59.0557Z" fill="#6B7280"/>
<path d="M436.619 59.0557H311.734C310.681 59.0557 309.827 59.8819 309.827 60.9012V64.5922C309.827 65.6114 310.681 66.4377 311.734 66.4377H436.619C437.672 66.4377 438.525 65.6114 438.525 64.5922V60.9012C438.525 59.8819 437.672 59.0557 436.619 59.0557Z" fill="#6B7280"/>
</g>
<mask id="mask2_442_223" style="mask-type:luminance" maskUnits="userSpaceOnUse" x="151" y="77" width="307" height="8">
<path d="M457.593 77.5098H151.577V84.8918H457.593V77.5098Z" fill="white"/>
</mask>
<g mask="url(#mask2_442_223)">
<path d="M214.496 77.5098H153.483C152.43 77.5098 151.577 78.336 151.577 79.3553V83.0463C151.577 84.0655 152.43 84.8918 153.483 84.8918H214.496C215.549 84.8918 216.402 84.0655 216.402 83.0463V79.3553C216.402 78.336 215.549 77.5098 214.496 77.5098Z" fill="#6B7280"/>
<path d="M344.147 77.5098H227.842C226.789 77.5098 225.936 78.336 225.936 79.3553V83.0463C225.936 84.0655 226.789 84.8918 227.842 84.8918H344.147C345.2 84.8918 346.054 84.0655 346.054 83.0463V79.3553C346.054 78.336 345.2 77.5098 344.147 77.5098Z" fill="#6B7280"/>
<path d="M418.506 77.5098H357.494C356.441 77.5098 355.587 78.336 355.587 79.3553V83.0463C355.587 84.0655 356.441 84.8918 357.494 84.8918H418.506C419.559 84.8918 420.413 84.0655 420.413 83.0463V79.3553C420.413 78.336 419.559 77.5098 418.506 77.5098Z" fill="#6B7280"/>
<path d="M457.593 77.5098H431.853C430.8 77.5098 429.946 78.336 429.946 79.3553V83.0463C429.946 84.0655 430.8 84.8918 431.853 84.8918H457.593C458.646 84.8918 459.499 84.0655 459.499 83.0463V79.3553C459.499 78.336 458.646 77.5098 457.593 77.5098Z" fill="#6B7280"/>
</g>
<mask id="mask3_442_223" style="mask-type:luminance" maskUnits="userSpaceOnUse" x="151" y="95" width="307" height="9">
<path d="M457.593 95.9658H151.577V103.348H457.593V95.9658Z" fill="white"/>
</mask>
<g mask="url(#mask3_442_223)">
<path d="M229.749 95.9658H153.483C152.43 95.9658 151.577 96.7921 151.577 97.8113V101.502C151.577 102.522 152.43 103.348 153.483 103.348H229.749C230.802 103.348 231.656 102.522 231.656 101.502V97.8113C231.656 96.7921 230.802 95.9658 229.749 95.9658Z" fill="#6B7280"/>
<path d="M265.022 95.9658H243.095C242.042 95.9658 241.188 96.7921 241.188 97.8113V101.502C241.188 102.522 242.042 103.348 243.095 103.348H265.022C266.075 103.348 266.928 102.522 266.928 101.502V97.8113C266.928 96.7921 266.075 95.9658 265.022 95.9658Z" fill="#6B7280"/>
<path d="M396.581 95.9658H278.369C277.316 95.9658 276.462 96.7921 276.462 97.8113V101.502C276.462 102.522 277.316 103.348 278.369 103.348H396.581C397.634 103.348 398.487 102.522 398.487 101.502V97.8113C398.487 96.7921 397.634 95.9658 396.581 95.9658Z" fill="#6B7280"/>
<path d="M446.153 95.9658H409.927C408.874 95.9658 408.02 96.7921 408.02 97.8113V101.502C408.02 102.522 408.874 103.348 409.927 103.348H446.153C447.206 103.348 448.06 102.522 448.06 101.502V97.8113C448.06 96.7921 447.206 95.9658 446.153 95.9658Z" fill="#6B7280"/>
</g>
<mask id="mask4_442_223" style="mask-type:luminance" maskUnits="userSpaceOnUse" x="151" y="114" width="307" height="8">
<path d="M457.592 114.422H151.576V121.804H457.592V114.422Z" fill="white"/>
</mask>
<g mask="url(#mask4_442_223)">
<path d="M267.881 114.422H153.482C152.429 114.422 151.576 115.248 151.576 116.267V119.958C151.576 120.978 152.429 121.804 153.482 121.804H267.881C268.934 121.804 269.787 120.978 269.787 119.958V116.267C269.787 115.248 268.934 114.422 267.881 114.422Z" fill="#6B7280"/>
<path d="M365.12 114.422H281.227C280.174 114.422 279.321 115.248 279.321 116.267V119.958C279.321 120.978 280.174 121.804 281.227 121.804H365.12C366.173 121.804 367.026 120.978 367.026 119.958V116.267C367.026 115.248 366.173 114.422 365.12 114.422Z" fill="#6B7280"/>
<path d="M449.012 114.422H378.466C377.413 114.422 376.56 115.248 376.56 116.267V119.958C376.56 120.978 377.413 121.804 378.466 121.804H449.012C450.065 121.804 450.919 120.978 450.919 119.958V116.267C450.919 115.248 450.065 114.422 449.012 114.422Z" fill="#6B7280"/>
</g>
<mask id="mask5_442_223" style="mask-type:luminance" maskUnits="userSpaceOnUse" x="151" y="132" width="307" height="9">
<path d="M457.592 132.876H151.576V140.258H457.592V132.876Z" fill="white"/>
</mask>
<g mask="url(#mask5_442_223)">
<path d="M177.316 132.876H153.483C152.43 132.876 151.576 133.702 151.576 134.721V138.412C151.576 139.432 152.43 140.258 153.483 140.258H177.316C178.369 140.258 179.222 139.432 179.222 138.412V134.721C179.222 133.702 178.369 132.876 177.316 132.876Z" fill="#6B7280"/>
<path d="M320.314 132.876H190.662C189.609 132.876 188.755 133.702 188.755 134.721V138.412C188.755 139.432 189.609 140.258 190.662 140.258H320.314C321.367 140.258 322.22 139.432 322.22 138.412V134.721C322.22 133.702 321.367 132.876 320.314 132.876Z" fill="#6B7280"/>
<path d="M455.686 132.876H333.661C332.608 132.876 331.754 133.702 331.754 134.721V138.412C331.754 139.432 332.608 140.258 333.661 140.258H455.686C456.739 140.258 457.593 139.432 457.593 138.412V134.721C457.593 133.702 456.739 132.876 455.686 132.876Z" fill="#6B7280"/>
</g>
<mask id="mask6_442_223" style="mask-type:luminance" maskUnits="userSpaceOnUse" x="151" y="151" width="307" height="8">
<path d="M457.592 151.333H151.576V158.715H457.592V151.333Z" fill="white"/>
</mask>
<g mask="url(#mask6_442_223)">
<path d="M224.982 151.332H153.483C152.43 151.332 151.577 152.158 151.577 153.178V156.869C151.577 157.888 152.43 158.714 153.483 158.714H224.982C226.035 158.714 226.889 157.888 226.889 156.869V153.178C226.889 152.158 226.035 151.332 224.982 151.332Z" fill="#6B7280"/>
<path d="M385.139 151.332H238.328C237.275 151.332 236.421 152.158 236.421 153.178V156.869C236.421 157.888 237.275 158.714 238.328 158.714H385.139C386.192 158.714 387.046 157.888 387.046 156.869V153.178C387.046 152.158 386.192 151.332 385.139 151.332Z" fill="#6B7280"/>
<path d="M425.179 151.332H398.486C397.433 151.332 396.579 152.158 396.579 153.178V156.869C396.579 157.888 397.433 158.714 398.486 158.714H425.179C426.232 158.714 427.085 157.888 427.085 156.869V153.178C427.085 152.158 426.232 151.332 425.179 151.332Z" fill="#6B7280"/>
</g>
<mask id="mask7_442_223" style="mask-type:luminance" maskUnits="userSpaceOnUse" x="151" y="169" width="307" height="9">
<path d="M457.592 169.786H151.576V177.168H457.592V169.786Z" fill="white"/>
</mask>
<g mask="url(#mask7_442_223)">
<path d="M267.881 169.786H153.483C152.43 169.786 151.576 170.612 151.576 171.632V175.323C151.576 176.342 152.43 177.168 153.483 177.168H267.881C268.934 177.168 269.788 176.342 269.788 175.323V171.632C269.788 170.612 268.934 169.786 267.881 169.786Z" fill="#6B7280"/>
<path d="M312.688 169.786H281.228C280.175 169.786 279.321 170.612 279.321 171.632V175.323C279.321 176.342 280.175 177.168 281.228 177.168H312.688C313.741 177.168 314.594 176.342 314.594 175.323V171.632C314.594 170.612 313.741 169.786 312.688 169.786Z" fill="#6B7280"/>
<path d="M450.919 169.786H326.034C324.981 169.786 324.127 170.612 324.127 171.632V175.323C324.127 176.342 324.981 177.168 326.034 177.168H450.919C451.972 177.168 452.825 176.342 452.825 175.323V171.632C452.825 170.612 451.972 169.786 450.919 169.786Z" fill="#6B7280"/>
</g>
<mask id="mask8_442_223" style="mask-type:luminance" maskUnits="userSpaceOnUse" x="151" y="188" width="307" height="8">
<path d="M457.593 188.24H151.577V195.622H457.593V188.24Z" fill="white"/>
</mask>
<g mask="url(#mask8_442_223)">
<path d="M217.356 188.24H153.483C152.43 188.24 151.577 189.066 151.577 190.086V193.777C151.577 194.796 152.43 195.622 153.483 195.622H217.356C218.409 195.622 219.262 194.796 219.262 193.777V190.086C219.262 189.066 218.409 188.24 217.356 188.24Z" fill="#6B7280"/>
<path d="M339.381 188.24H230.703C229.65 188.24 228.796 189.066 228.796 190.086V193.777C228.796 194.796 229.65 195.622 230.703 195.622H339.381C340.434 195.622 341.288 194.796 341.288 193.777V190.086C341.288 189.066 340.434 188.24 339.381 188.24Z" fill="#6B7280"/>
<path d="M426.132 188.24H352.726C351.673 188.24 350.82 189.066 350.82 190.086V193.777C350.82 194.796 351.673 195.622 352.726 195.622H426.132C427.185 195.622 428.039 194.796 428.039 193.777V190.086C428.039 189.066 427.185 188.24 426.132 188.24Z" fill="#6B7280"/>
</g>
<mask id="mask9_442_223" style="mask-type:luminance" maskUnits="userSpaceOnUse" x="151" y="206" width="307" height="9">
<path d="M457.592 206.697H151.576V214.079H457.592V206.697Z" fill="white"/>
</mask>
<g mask="url(#mask9_442_223)">
<path d="M267.881 206.697H153.483C152.43 206.697 151.576 207.524 151.576 208.543V212.234C151.576 213.253 152.43 214.079 153.483 214.079H267.881C268.934 214.079 269.788 213.253 269.788 212.234V208.543C269.788 207.524 268.934 206.697 267.881 206.697Z" fill="#6B7280"/>
<path d="M325.081 206.697H281.228C280.175 206.697 279.321 207.524 279.321 208.543V212.234C279.321 213.253 280.175 214.079 281.228 214.079H325.081C326.134 214.079 326.987 213.253 326.987 212.234V208.543C326.987 207.524 326.134 206.697 325.081 206.697Z" fill="#6B7280"/>
<path d="M457.592 206.697H338.427C337.374 206.697 336.521 207.524 336.521 208.543V212.234C336.521 213.253 337.374 214.079 338.427 214.079H457.592C458.645 214.079 459.499 213.253 459.499 212.234V208.543C459.499 207.524 458.645 206.697 457.592 206.697Z" fill="#6B7280"/>
</g>
<mask id="mask10_442_223" style="mask-type:luminance" maskUnits="userSpaceOnUse" x="151" y="225" width="307" height="8">
<path d="M457.593 225.152H151.577V232.534H457.593V225.152Z" fill="white"/>
</mask>
<g mask="url(#mask10_442_223)">
<path d="M182.083 225.152H153.483C152.43 225.152 151.577 225.979 151.577 226.998V230.689C151.577 231.708 152.43 232.534 153.483 232.534H182.083C183.136 232.534 183.99 231.708 183.99 230.689V226.998C183.99 225.979 183.136 225.152 182.083 225.152Z" fill="#6B7280"/>
<path d="M310.781 225.152H195.43C194.377 225.152 193.523 225.979 193.523 226.998V230.689C193.523 231.708 194.377 232.534 195.43 232.534H310.781C311.834 232.534 312.688 231.708 312.688 230.689V226.998C312.688 225.979 311.834 225.152 310.781 225.152Z" fill="#6B7280"/>
<path d="M449.012 225.152H324.127C323.074 225.152 322.221 225.979 322.221 226.998V230.689C322.221 231.708 323.074 232.534 324.127 232.534H449.012C450.065 232.534 450.919 231.708 450.919 230.689V226.998C450.919 225.979 450.065 225.152 449.012 225.152Z" fill="#6B7280"/>
</g>
<path d="M139.184 307.277H468.08V326.655C468.08 330.732 464.666 334.037 460.453 334.037H139.184V307.277Z" fill="#374151"/>
<path d="M331.279 318.35H305.063C304.536 318.35 304.109 318.763 304.109 319.272V322.041C304.109 322.55 304.536 322.963 305.063 322.963H331.279C331.806 322.963 332.232 322.55 332.232 322.041V319.272C332.232 318.763 331.806 318.35 331.279 318.35Z" fill="#6B7280"/>
<path d="M372.749 318.35H346.532C346.006 318.35 345.579 318.763 345.579 319.272V322.041C345.579 322.55 346.006 322.963 346.532 322.963H372.749C373.275 322.963 373.702 322.55 373.702 322.041V319.272C373.702 318.763 373.275 318.35 372.749 318.35Z" fill="#6B7280"/>
<path d="M414.218 318.35H388.002C387.475 318.35 387.048 318.763 387.048 319.272V322.041C387.048 322.55 387.475 322.963 388.002 322.963H414.218C414.744 322.963 415.171 322.55 415.171 322.041V319.272C415.171 318.763 414.744 318.35 414.218 318.35Z" fill="#6B7280"/>
<path d="M455.687 318.35H429.471C428.944 318.35 428.518 318.763 428.518 319.272V322.041C428.518 322.55 428.944 322.963 429.471 322.963H455.687C456.214 322.963 456.641 322.55 456.641 322.041V319.272C456.641 318.763 456.214 318.35 455.687 318.35Z" fill="#6B7280"/>
</g>
</svg>
