<svg width="436" height="434" viewBox="0 0 436 434" fill="none" xmlns="http://www.w3.org/2000/svg">
<path fill-rule="evenodd" clip-rule="evenodd" d="M309.253 432.145C316.116 434.822 323.941 434.65 330.868 431.313L420.578 388.095C430.005 383.554 436 374.002 436 363.523V70.4783C436 59.9996 430.006 50.4479 420.579 45.9066L330.868 2.68728C321.777 -1.69215 311.138 -0.619466 303.16 5.18783C302.02 6.0174 300.934 6.94364 299.916 7.96438L128.175 164.831L53.3688 107.98C46.4048 102.687 36.6645 103.121 30.1969 109.011L6.20405 130.862C-1.70708 138.067 -1.71615 150.527 6.18444 157.744L71.0592 217L6.18444 276.256C-1.71615 283.473 -1.70708 295.934 6.20405 303.138L30.1969 324.989C36.6645 330.879 46.4048 331.313 53.3688 326.02L128.175 269.169L299.916 426.036C302.632 428.757 305.822 430.807 309.253 432.145ZM327.132 117.967L196.821 217L327.132 316.033V117.967Z" fill="url(#paint0_linear_459_1336)" fill-opacity="0.12"/>
<path d="M420.581 45.9737L330.8 2.69501C320.408 -2.3145 307.988 -0.201383 299.833 7.96396L5.92322 276.256C-1.98221 283.472 -1.97312 295.933 5.94283 303.138L29.9503 324.989C36.4218 330.879 46.1682 331.312 53.1361 326.02L407.071 57.2014C418.945 48.1829 436 56.6618 436 71.5837V70.5402C436 60.0658 430.007 50.5177 420.581 45.9737Z" fill="url(#paint1_linear_459_1336)" fill-opacity="0.12"/>
<path d="M420.581 388.026L330.8 431.304C320.408 436.315 307.988 434.201 299.833 426.036L5.92322 157.744C-1.98221 150.527 -1.97312 138.066 5.94283 130.862L29.9503 109.011C36.4218 103.121 46.1682 102.687 53.1361 107.979L407.071 376.798C418.945 385.816 436 377.338 436 362.416V363.46C436 373.934 430.007 383.482 420.581 388.026Z" fill="url(#paint2_linear_459_1336)" fill-opacity="0.12"/>
<path d="M330.804 431.312C320.409 436.319 307.989 434.202 299.833 426.036C309.883 436.097 327.066 428.971 327.066 414.741V19.2576C327.066 5.02834 309.883 -2.09765 299.833 7.96396C307.989 -0.20212 320.409 -2.31833 330.804 2.68674L420.569 45.9062C430.002 50.4475 436 59.9996 436 70.4783V363.523C436 374.002 430.002 383.553 420.569 388.095L330.804 431.312Z" fill="url(#paint3_linear_459_1336)" fill-opacity="0.12"/>
<path fill-rule="evenodd" clip-rule="evenodd" d="M308.988 432.145C315.851 434.821 323.677 434.65 330.603 431.313L420.314 388.095C429.74 383.554 435.735 374.002 435.735 363.523V70.4782C435.735 59.9991 429.741 50.4474 420.314 45.9061L330.603 2.68695C321.513 -1.69248 310.873 -0.619791 302.895 5.18746C301.755 6.01708 300.669 6.94332 299.651 7.96405L127.91 164.83L53.1038 107.979C46.1403 102.687 36.3997 103.121 29.9321 109.011L5.93921 130.862C-1.97193 138.067 -1.981 150.527 5.9196 157.744L70.7942 217L5.9196 276.256C-1.981 283.473 -1.97193 295.933 5.93921 303.138L29.9321 324.989C36.3997 330.879 46.1403 331.312 53.1038 326.02L127.91 269.169L299.651 426.035C302.367 428.757 305.557 430.807 308.988 432.145ZM326.868 117.966L196.556 217L326.868 316.033V117.966Z" fill="url(#paint4_linear_459_1336)" fill-opacity="0.12"/>
<defs>
<linearGradient id="paint0_linear_459_1336" x1="218" y1="0" x2="317.937" y2="461.917" gradientUnits="userSpaceOnUse">
<stop stop-color="#324157"/>
<stop offset="0.9999" stop-color="#1E2631" stop-opacity="0.72"/>
<stop offset="1" stop-color="#6D7887"/>
</linearGradient>
<linearGradient id="paint1_linear_459_1336" x1="218" y1="0" x2="317.937" y2="461.917" gradientUnits="userSpaceOnUse">
<stop stop-color="#324157"/>
<stop offset="0.9999" stop-color="#1E2631" stop-opacity="0.72"/>
<stop offset="1" stop-color="#6D7887"/>
</linearGradient>
<linearGradient id="paint2_linear_459_1336" x1="218" y1="0" x2="317.937" y2="461.917" gradientUnits="userSpaceOnUse">
<stop stop-color="#324157"/>
<stop offset="0.9999" stop-color="#1E2631" stop-opacity="0.72"/>
<stop offset="1" stop-color="#6D7887"/>
</linearGradient>
<linearGradient id="paint3_linear_459_1336" x1="218" y1="0" x2="317.937" y2="461.917" gradientUnits="userSpaceOnUse">
<stop stop-color="#324157"/>
<stop offset="0.9999" stop-color="#1E2631" stop-opacity="0.72"/>
<stop offset="1" stop-color="#6D7887"/>
</linearGradient>
<linearGradient id="paint4_linear_459_1336" x1="218" y1="0" x2="317.937" y2="461.917" gradientUnits="userSpaceOnUse">
<stop stop-color="#324157"/>
<stop offset="0.9999" stop-color="#1E2631" stop-opacity="0.72"/>
<stop offset="1" stop-color="#6D7887"/>
</linearGradient>
</defs>
</svg>
