<svg width="214" height="286" viewBox="0 0 214 286" fill="none" xmlns="http://www.w3.org/2000/svg">
<g clip-path="url(#clip0_293_599)">
<path d="M42.8487 264.69C66.4915 268.582 88.8462 252.503 92.7477 228.801L99.8156 185.861L56.9844 178.811C33.3417 174.919 10.9869 190.998 7.08545 214.701C3.18398 238.403 19.2059 260.799 42.8487 264.69Z" fill="#0ACF83"/>
<path d="M21.2212 128.821C25.1227 105.119 47.4774 89.0403 71.1202 92.932L113.951 99.982L99.8156 185.861L56.9844 178.811C33.3417 174.919 17.3197 152.524 21.2212 128.821Z" fill="#A259FF"/>
<path d="M35.3569 42.9424C39.2584 19.2398 61.6132 3.16125 85.2559 7.05286L128.087 14.1029L113.951 99.982L71.1202 92.932C47.4774 89.0404 31.4555 66.645 35.3569 42.9424Z" fill="#F24E1E"/>
<path d="M128.087 14.1029L170.918 21.1529C194.561 25.0445 210.583 47.4398 206.681 71.1425C202.78 94.8451 180.425 110.924 156.782 107.032L113.951 99.982L128.087 14.1029Z" fill="#FF7262"/>
<path d="M192.546 157.022C188.644 180.724 166.289 196.803 142.647 192.911C119.004 189.019 102.982 166.624 106.883 142.922C110.785 119.219 133.14 103.14 156.782 107.032C180.425 110.924 196.447 133.319 192.546 157.022Z" fill="#1ABCFE"/>
</g>
<defs>
<clipPath id="clip0_293_599">
<rect width="173.665" height="261.104" fill="white" transform="translate(42.4072) rotate(9.3471)"/>
</clipPath>
</defs>
</svg>
