<svg width="304" height="280" viewBox="0 0 304 280" fill="none" xmlns="http://www.w3.org/2000/svg">
<g clip-path="url(#clip0_464_127)">
<path d="M147.672 163.143C160.625 165.372 172.932 156.678 175.16 143.725C177.388 130.772 168.694 118.465 155.741 116.237C142.788 114.008 130.482 122.703 128.254 135.655C126.025 148.608 134.719 160.915 147.672 163.143Z" fill="#00D8FF"/>
<path d="M143.438 187.746C212.942 199.703 272.986 187.882 277.551 161.345C282.117 134.807 229.474 103.601 159.97 91.645C90.4667 79.6886 30.4223 91.5091 25.8571 118.047C21.292 144.585 73.9349 175.79 143.438 187.746Z" stroke="#00D8FF" stroke-width="11.6087"/>
<path d="M105.958 156.557C130.355 222.727 170.614 268.816 195.879 259.501C221.144 250.186 221.847 188.993 197.45 122.823C173.053 56.653 132.794 10.5633 107.529 19.8786C82.2639 29.1939 81.5605 90.3868 105.958 156.557Z" stroke="#00D8FF" stroke-width="11.6087"/>
<path d="M114.223 108.509C69.1168 162.722 49.3315 220.632 70.0312 237.855C90.731 255.077 144.077 225.09 189.183 170.876C234.29 116.663 254.075 58.7524 233.375 41.53C212.676 24.3076 159.329 54.2949 114.223 108.509Z" stroke="#00D8FF" stroke-width="11.6087"/>
</g>
<defs>
<clipPath id="clip0_464_127">
<rect width="267" height="237.554" fill="white" transform="translate(40.2739) rotate(9.76077)"/>
</clipPath>
</defs>
</svg>
